<svg xmlns="http://www.w3.org/2000/svg" viewBox="0 0 400 400" width="400" height="400">
  <defs>
    <linearGradient id="bg" x1="0" y1="0" x2="1" y2="1">
      <stop offset="0%" stop-color="#f5ede4"/>
      <stop offset="100%" stop-color="#ebe0d1"/>
    </linearGradient>
    <linearGradient id="laptop" x1="0" y1="0" x2="0" y2="1">
      <stop offset="0%" stop-color="#d9dde4"/>
      <stop offset="100%" stop-color="#aeb4c0"/>
    </linearGradient>
    <linearGradient id="glow" x1="0" y1="0" x2="1" y2="0">
      <stop offset="0%" stop-color="#fff4e0" stop-opacity="0.9"/>
      <stop offset="100%" stop-color="#fff4e0" stop-opacity="0"/>
    </linearGradient>
  </defs>
  <rect width="400" height="400" fill="url(#bg)"/>
  <polygon points="180,190 400,60 400,260 180,240" fill="url(#glow)" opacity="0.7"/>
  <path d="M90 400 C 90 280, 130 230, 200 230 L 260 230 C 260 280, 250 340, 240 400 Z" fill="#5a3a36"/>
  <path d="M125 285 Q 130 260 160 255 L 200 250 L 210 305 L 140 315 Z" fill="#6b4a44" opacity="0.7"/>
  <circle cx="195" cy="160" r="42" fill="#c79075"/>
  <path d="M157 165 Q 150 120 200 115 Q 250 120 238 165 Q 240 180 230 170 Q 225 140 200 135 Q 175 140 165 170 Q 158 180 157 165 Z" fill="#2a1f1c"/>
  <path d="M230 180 Q 240 200 235 230 L 215 225 Q 220 205 225 185 Z" fill="#2a1f1c"/>
  <ellipse cx="182" cy="172" rx="3" ry="2" fill="#ffffff" opacity="0.9"/>
  <circle cx="178" cy="200" r="4" fill="#e8d5c4"/>
  <rect x="220" y="250" width="170" height="110" rx="6" fill="url(#laptop)" stroke="#8990a0" stroke-width="1.5"/>
  <rect x="228" y="258" width="154" height="94" rx="3" fill="#f7f5f0"/>
  <text x="305" y="315" font-family="monospace" font-size="36" fill="#8b5cf6" text-anchor="middle" font-weight="700">&lt;/&gt;</text>
  <rect x="205" y="358" width="200" height="10" rx="3" fill="#9aa2b1"/>
  <path d="M240 320 Q 225 315 215 305 L 225 285 Q 240 295 250 305 Z" fill="#c79075"/>
  <circle cx="70" cy="80" r="3" fill="#8b5cf6" opacity="0.6"/>
  <circle cx="340" cy="340" r="2.5" fill="#8b5cf6" opacity="0.5"/>
  <circle cx="50" cy="300" r="2" fill="#c79075" opacity="0.7"/>
</svg>
